<svg width="720" height="720" viewBox="0 0 720 720" fill="none" xmlns="http://www.w3.org/2000/svg">
<rect width="720" height="720" rx="360" fill="#0052CC"/>
<circle cx="361.854" cy="311.895" r="75.5" fill="white"/>
<path d="M335.604 588.895L292.104 583.395L234.72 570.039C234.312 569.944 233.92 569.785 233.56 569.57C232.346 568.841 231.604 567.529 231.604 566.113V529.395L231.104 499.895L232.313 478.53C232.505 475.127 233.224 471.775 234.443 468.593L240.413 453.003C241.205 450.936 242.202 448.955 243.39 447.088L252.865 432.198C254.68 429.347 256.922 426.791 259.513 424.62L271.915 414.229C273.371 413.009 274.93 411.917 276.574 410.965L288.786 403.895C291.648 402.238 294.743 401.021 297.967 400.284L306.974 398.225C309.386 397.674 311.853 397.395 314.327 397.395H408.748C412.295 397.395 415.819 397.967 419.184 399.089L437.219 405.1C440.782 406.288 444.117 408.076 447.079 410.386L463.602 423.275C466.254 425.343 468.574 427.805 470.482 430.574L480.516 445.139C482.233 447.632 483.599 450.348 484.575 453.212L489.133 466.58C490.109 469.443 490.686 472.427 490.85 475.448L492.604 507.895V544.395L490.984 564.239C490.748 567.13 489.019 569.688 486.425 570.985C485.879 571.258 485.305 571.47 484.712 571.617L423.45 586.813C421.888 587.201 420.299 587.474 418.698 587.629L385.104 590.895L335.604 588.895Z" fill="white"/>
<path fill-rule="evenodd" clip-rule="evenodd" d="M458.602 307.47C479.372 312.819 502.272 309.329 521.138 295.952C555.153 271.834 563.175 224.708 539.057 190.693C514.939 156.679 467.813 148.656 433.798 172.775C415.604 185.676 404.846 205.159 402.466 225.698C419.144 229.993 434.448 239.986 445.189 255.135C456.406 270.955 460.671 289.611 458.602 307.47Z" fill="white"/>
<path d="M615.734 391.393L617.653 405.841L621.03 484.812C621.049 485.254 621.015 485.696 620.927 486.13C620.509 488.198 618.94 489.841 616.893 490.354L520.577 514.495C517.828 515.184 515.145 513.157 515.058 510.324L511.591 474.322L508 459.291L503.596 447.451C502.991 445.825 502.255 444.251 501.396 442.745L496 433.291L488.347 422.382L478 411.291L466.549 401.994L452.5 392.791L437.492 384.707C437.089 384.491 436.833 384.076 436.818 383.619C436.813 383.445 436.843 383.272 436.907 383.11L460.449 323.305C460.658 322.774 461.163 322.419 461.733 322.401L512.452 319.828L525.139 319.435L533.541 319.89C535.786 320.012 538.012 320.37 540.183 320.958L553.52 324.575L567.627 330.161C569.96 331.085 572.177 332.28 574.231 333.722L586.346 342.228C588.064 343.433 589.659 344.805 591.107 346.323L596.895 352.386C598.707 354.284 600.279 356.399 601.575 358.681L608.578 371.016L613.672 383.591C614.686 386.094 615.379 388.716 615.734 391.393Z" fill="white"/>
<path fill-rule="evenodd" clip-rule="evenodd" d="M261.987 305.491C240.314 313.588 215.575 311.512 195.563 297.692C162.457 274.828 154.829 228.479 178.524 194.169C202.22 159.859 248.266 150.579 281.372 173.443C300.448 186.617 311.065 207.588 312.105 229.56C297.923 234.859 285.053 244.513 275.681 258.085C265.638 272.626 261.222 289.329 261.987 305.491Z" fill="white"/>
<path d="M100.641 397.177L99.1035 411.395L98.1124 490.192C98.1065 490.659 98.1608 491.125 98.2741 491.578C98.7809 493.605 100.407 495.162 102.454 495.58L206.215 516.794C208.998 517.363 211.604 515.236 211.604 512.395L213.927 478.941C214.044 477.247 214.297 475.564 214.682 473.91L217.5 461.791L221.627 449.746C222.277 447.85 223.103 446.019 224.095 444.277L229.5 434.791L235.574 426.087C236.592 424.628 237.73 423.257 238.975 421.988L248 412.791L259.604 402.895L274.5 393.291L289.965 384.748C290.359 384.531 290.604 384.116 290.604 383.665C290.604 383.487 290.565 383.312 290.491 383.15L263.52 324.304C263.266 323.751 262.713 323.395 262.104 323.395L208.104 322.395H194.604L185.279 323.141C183.167 323.31 181.077 323.689 179.04 324.271L164.604 328.395L149.49 334.523C147.24 335.435 145.101 336.6 143.114 337.996L130.165 347.095C128.462 348.292 126.879 349.653 125.439 351.158L119.392 357.48C117.54 359.416 115.939 361.577 114.626 363.911L107.604 376.395L102.682 388.888C101.634 391.548 100.948 394.336 100.641 397.177Z" fill="white"/>
</svg>
